<?xml version="1.0" encoding="utf-8"?>
<!-- Generator: Adobe Illustrator 25.3.1, SVG Export Plug-In . SVG Version: 6.00 Build 0)  -->
<svg version="1.1" id="Capa_1" xmlns="http://www.w3.org/2000/svg" xmlns:xlink="http://www.w3.org/1999/xlink" x="0px" y="0px"
	 viewBox="0 0 512 512" style="enable-background:new 0 0 512 512;" xml:space="preserve">
<g>
	<path d="M422.7,166.7C422.7,74.8,347.9,0,256,0S89.3,74.8,89.3,166.7c0,51.6,23.6,97.9,60.6,128.5l-46.6,190l64.8-23.3l49.7,50.2
		L256,356.5L294.1,512l49.7-50.2l64.8,23.3l-46.6-190C399.1,264.5,422.7,218.3,422.7,166.7L422.7,166.7z M119.5,166.7
		c0-75.3,61.2-136.5,136.5-136.5s136.5,61.2,136.5,136.5S331.3,303.2,256,303.2S119.5,241.9,119.5,166.7z M201.5,452.6L176.1,427
		L146,437.8l30.6-124.7c16.7,9.1,35.1,15.4,54.6,18.3L201.5,452.6z M366,437.8L336,427l-25.4,25.6l-29.7-121.1
		c19.5-2.9,37.9-9.3,54.6-18.3L366,437.8z"/>
	<g>
		<path d="M252.7,208.6c-2.2,0-4.4-0.8-6-2.5l-28.8-28.8c-3.3-3.3-3.3-8.7,0-12c3.3-3.3,8.7-3.3,12,0l22.8,22.8l43.3-43.3
			c3.3-3.3,8.7-3.3,12,0c3.3,3.3,3.3,8.7,0,12l-49.3,49.3C257.1,207.8,254.9,208.6,252.7,208.6z"/>
	</g>
	<g>
		<path d="M259,76.1c3.9,0,5.5,2.4,6.2,4.5l6.7,20.6c6.8,20.9,26.1,34.9,48,34.9h21.6c3.9,0,5.5,2.4,6.2,4.5c1.2,3.7-0.6,6-2.4,7.3
			l-17.5,12.7c-17.8,12.9-25.1,35.6-18.3,56.4l6.7,20.6c0.7,2.2,0.5,4-0.7,5.6c-1.3,1.8-3.5,3-5.6,3c-1.2,0-2.4-0.4-3.7-1.4
			l-17.5-12.7c-8.7-6.3-18.9-9.6-29.7-9.6c-10.7,0-21,3.3-29.7,9.6l-17.5,12.7c-1.3,0.9-2.5,1.4-3.7,1.4c-2,0-4.3-1.2-5.6-3
			c-1.2-1.6-1.4-3.4-0.7-5.6l6.7-20.6c6.8-20.9-0.6-43.6-18.3-56.4l-17.5-12.7c-3.2-2.3-3-5.2-2.4-7.3c1.2-3.7,4-4.5,6.2-4.5h21.6
			c21.9,0,41.2-14,48-34.9l6.7-20.6C254,76.9,256.8,76.1,259,76.1 M259,54.1c-11.4,0-22.8,6.6-27.1,19.7l-6.7,20.6
			c-3.8,11.7-14.8,19.7-27.1,19.7h-21.6c-27.6,0-39.1,35.3-16.7,51.5l17.5,12.7c10,7.3,14.2,20.1,10.3,31.9l-6.7,20.6
			c-6.5,20,9.4,37.4,27.2,37.4c5.6,0,11.3-1.7,16.6-5.6l17.5-12.7c5-3.6,10.9-5.4,16.7-5.4s11.8,1.8,16.7,5.4l17.5,12.7
			c5.3,3.9,11.1,5.6,16.6,5.6c17.8,0,33.7-17.4,27.2-37.4l-6.7-20.6c-3.8-11.7,0.4-24.6,10.3-31.9l17.5-12.7
			c22.3-16.2,10.9-51.5-16.7-51.5h-21.6c-12.3,0-23.3-7.9-27.1-19.7l-6.7-20.6C281.8,60.7,270.4,54.1,259,54.1L259,54.1z"/>
	</g>
</g>
</svg>
