<?xml version="1.0" encoding="iso-8859-1"?>
<!-- Generator: Adobe Illustrator 19.0.0, SVG Export Plug-In . SVG Version: 6.00 Build 0)  -->
<svg version="1.1" id="Capa_1" xmlns="http://www.w3.org/2000/svg" xmlns:xlink="http://www.w3.org/1999/xlink" x="0px" y="0px"
	 viewBox="0 0 512 512" style="enable-background:new 0 0 512 512;" xml:space="preserve">
<g>
	<g>
		<path d="M256,272c-17.344,0-32-10.976-32-24s14.656-24,32-24c8.704,0,16.832,2.688,22.88,7.616
			c6.816,5.568,16.896,4.576,22.496-2.304c5.6-6.848,4.576-16.928-2.304-22.496c-7.712-6.304-17.056-10.528-27.072-12.8V176
			c0-8.832-7.168-16-16-16c-8.832,0-16,7.168-16,16v17.984c-27.52,6.272-48,28-48,54.016c0,30.88,28.704,56,64,56
			c17.344,0,32,10.976,32,24s-14.656,24-32,24c-8.704,0-16.832-2.688-22.88-7.616c-6.816-5.568-16.896-4.608-22.496,2.304
			c-5.6,6.848-4.576,16.928,2.304,22.496c7.712,6.272,17.056,10.496,27.072,12.768V400c0,8.832,7.168,16,16,16
			c8.832,0,16-7.168,16-16v-17.984c27.52-6.272,48-28,48-54.016C320,297.12,291.296,272,256,272z"/>
	</g>
</g>
<g>
	<g>
		<path d="M416,64h-64V48c0-8.832-7.168-16-16-16h-34.752C294.656,13.376,276.864,0,256,0s-38.656,13.376-45.248,32H176
			c-8.832,0-16,7.168-16,16v16H96c-17.952,0-32,14.048-32,32v384c0,17.952,14.048,32,32,32h320c17.952,0,32-14.048,32-32V96
			C448,78.048,433.952,64,416,64z M192,64h32c8.832,0,16-7.168,16-16c0-8.832,7.2-16,16-16s16,7.168,16,16c0,8.832,7.168,16,16,16
			h32v32H192V64z M416,480H96V96h64v16c0,8.832,7.168,16,16,16h160c8.832,0,16-7.168,16-16V96h64V480z"/>
	</g>
</g>
<g>
</g>
<g>
</g>
<g>
</g>
<g>
</g>
<g>
</g>
<g>
</g>
<g>
</g>
<g>
</g>
<g>
</g>
<g>
</g>
<g>
</g>
<g>
</g>
<g>
</g>
<g>
</g>
<g>
</g>
</svg>
