<svg id="Capa_1" enable-background="new 0 0 511.99 511.99" height="512" viewBox="0 0 511.99 511.99" width="512" xmlns="http://www.w3.org/2000/svg"><g><path d="m504.485 336.22c4.143 0 7.5-3.358 7.5-7.5v-232.46c0-44.575-36.27-80.84-80.851-80.84h-48.643c-10.116-9.548-23.739-15.42-38.716-15.42h-80.8c-15.987 0-31.144 5.432-43.372 15.42h-138.748c-44.581 0-80.851 36.265-80.851 80.84v247.46c0 44.569 36.27 80.83 80.851 80.83h79.049v13.632h-15.565c-9.852 0-19.12 3.836-26.102 10.806-6.97 6.969-10.808 16.239-10.808 26.103 0 20.346 16.558 36.899 36.909 36.899h223.312c9.852 0 19.12-3.836 26.102-10.806 6.97-6.969 10.808-16.235 10.808-26.093 0-20.352-16.558-36.909-36.909-36.909h-15.565v-13.632h79.049c38.169 0 71.467-27.081 79.175-64.393.838-4.056-1.771-8.024-5.827-8.862-4.063-.84-8.024 1.771-8.862 5.827-6.276 30.378-33.396 52.427-64.485 52.427h-350.281c-36.311 0-65.851-29.531-65.851-65.83v-247.459c0-36.304 29.54-65.84 65.851-65.84h123.245l-25.771 25.775h-97.477c-22.095 0-40.069 17.975-40.069 40.069v247.452c0 22.094 17.975 40.069 40.069 40.069h350.298c22.089 0 40.059-17.975 40.059-40.069v-247.452c0-22.094-17.97-40.069-40.059-40.069h-30.92c-.042-9.29-2.346-18.051-6.379-25.775h37.285c36.311 0 65.851 29.536 65.851 65.84v232.46c-.002 4.142 3.356 7.5 7.498 7.5zm-114.924 138.871c0 5.851-2.277 11.351-6.409 15.481-4.146 4.139-9.65 6.417-15.5 6.417h-223.313c-12.081 0-21.909-9.824-21.909-21.899 0-5.857 2.277-11.36 6.409-15.491 4.146-4.139 9.65-6.418 15.5-6.418h223.312c12.081.001 21.91 9.83 21.91 21.91zm-52.475-50.534v13.623h-162.182v-13.623zm48.149-368.107v240.03c0 22.855-18.599 41.45-41.46 41.45h-192.75c-1.093 0-2.19-.043-3.27-.128-21.41-1.663-38.181-19.814-38.181-41.322v-117.628h.001c0-15.604 12.694-28.298 28.299-28.298h50.805c31.125 0 56.447-25.322 56.447-56.447v-50.806c0-15.604 12.694-28.298 28.298-28.298v-.003h70.351c22.862 0 41.46 18.595 41.46 41.45zm70.973 39.814v247.452c0 13.823-11.241 25.069-25.059 25.069h-350.297c-13.823 0-25.069-11.246-25.069-25.069v-247.452c0-13.823 11.246-25.069 25.069-25.069h82.48l-13.11 13.112c-2.929 2.929-2.929 7.678.001 10.606 2.929 2.928 7.676 2.93 10.606-.001l64.177-64.187c3.168-3.166 6.662-5.887 10.405-8.133-3.366 6.155-5.283 13.212-5.283 20.708v50.805c0 22.854-18.593 41.447-41.447 41.447h-50.805c-7.495 0-14.55 1.916-20.704 5.281 2.247-3.741 4.97-7.234 8.136-10.401l14.32-14.32c2.93-2.929 2.93-7.677.001-10.606s-7.678-2.93-10.606 0l-14.321 14.32c-12.979 12.979-20.126 30.226-20.126 48.563v128.09c0 29.292 22.85 54.011 52.011 56.277 1.462.115 2.955.173 4.439.173h192.75c31.132 0 56.46-25.323 56.46-56.45v-225.284h30.914c13.817 0 25.058 11.246 25.058 25.069z"/><path d="m160.916 176.457c-20.638 0-37.428 16.79-37.428 37.428v54.748c0 20.638 16.79 37.428 37.428 37.428h172.976c20.639 0 37.429-16.79 37.429-37.428v-54.748c0-20.638-16.79-37.428-37.429-37.428zm142.14 76.232h-107.805v-22.861h107.805zm15-22.86h38.265v22.861h-38.265zm-15 37.86v23.372h-107.805v-23.372zm-122.805-15h-41.763v-22.861h41.763zm15-37.86v-23.372h107.805v23.372zm-34.335-23.372h19.335v23.372h-41.763v-.943c0-12.368 10.061-22.429 22.428-22.429zm-22.428 77.176v-.943h41.763v23.372h-19.335c-12.367-.001-22.428-10.062-22.428-22.429zm195.404 22.428h-15.836v-23.372h38.265v.943c-.001 12.368-10.062 22.429-22.429 22.429zm22.428-77.176v.943h-38.265v-23.372h15.836c12.368.001 22.429 10.062 22.429 22.429z"/><path d="m329.021 104.942c-4.836.037-6.002-.147-9.545-2.464-3.467-2.268-8.114-1.296-10.382 2.17s-1.296 8.115 2.171 10.382c3.876 2.536 6.955 3.806 10.305 4.412v.03c0 4.142 3.357 7.5 7.5 7.5s7.5-3.358 7.5-7.5v-.883c7.222-2.652 12.722-8.989 14.062-16.954 1.669-9.929-3.704-18.895-13.369-22.312-4.669-1.65-9.812-3.628-12.562-5.786-.15-.117-.446-.944-.226-2.112.11-.585.615-2.538 2.484-3.102 4.577-1.378 7.489.881 7.806 1.143 3.188 2.639 7.918 2.203 10.561-.983s2.212-7.904-.971-10.551c-1.973-1.641-4.638-3.139-7.784-4.069v-.491c0-4.142-3.357-7.5-7.5-7.5s-7.5 3.358-7.5 7.5v.952c-6.087 2.255-10.578 7.646-11.837 14.325-1.236 6.564.951 12.96 5.709 16.691 4.445 3.488 10.712 5.967 16.82 8.126 2.839 1.003 4.042 2.915 3.576 5.683-.36 2.138-2.199 5.763-6.818 5.793z"/></g></svg>