<svg id="Capa_1" enable-background="new 0 0 512 512" height="512" viewBox="0 0 512 512" width="512" xmlns="http://www.w3.org/2000/svg"><g><circle cx="402" cy="91" r="10"/><path d="m509.733 364.66c-1.899-2.317-4.737-3.66-7.733-3.66h-5v-260c0-11.028-8.972-20-20-20h-30c-5.523 0-10 4.478-10 10s4.477 10 10 10h30v260h-20v-225c0-8.271-6.729-15-15-15h-372c-8.271 0-15 6.729-15 15v225h-20v-260h322c5.523 0 10-4.478 10-10s-4.477-10-10-10h-322c-11.028 0-20 8.972-20 20v260h-5c-2.996 0-5.834 1.343-7.733 3.66-1.899 2.316-2.66 5.363-2.072 8.301 6.725 33.63 36.499 58.039 70.795 58.039h370.02c34.296 0 64.07-24.409 70.796-58.039.588-2.938-.173-5.984-2.073-8.301zm-434.733-223.66h362v220h-362zm366.01 270h-370.02c-20.507 0-38.777-12.071-47.235-30h464.489c-8.457 17.929-26.727 30-47.234 30z"/><path d="m191.592 245.59c4.973-6.046 7.963-13.78 7.963-22.201 0-19.299-15.701-35-35-35s-35 15.701-35 35c0 8.421 2.99 16.155 7.963 22.201-16.422 9.413-27.518 27.106-27.518 47.354v10.667c0 5.522 4.477 10 10 10h89.111c5.523 0 10-4.478 10-10v-10.667c0-20.248-11.096-37.941-27.519-47.354zm-42.036-22.201c0-8.271 6.729-15 15-15s15 6.729 15 15-6.729 15-15 15-15-6.729-15-15zm49.555 70.222h-69.111v-.667c0-19.054 15.502-34.556 34.556-34.556s34.556 15.502 34.556 34.556v.667z"/><path d="m392 241h-122.889c-5.523 0-10 4.478-10 10 0 5.523 4.477 10 10 10h122.889c5.523 0 10-4.478 10-10s-4.477-10-10-10z"/><path d="m269.111 221h18.777c5.523 0 10-4.477 10-10 0-5.522-4.477-10-10-10h-18.777c-5.523 0-10 4.478-10 10 0 5.523 4.478 10 10 10z"/><path d="m333.889 221h58.111c5.523 0 10-4.477 10-10 0-5.522-4.477-10-10-10h-58.111c-5.523 0-10 4.478-10 10 0 5.523 4.477 10 10 10z"/><path d="m392 281h-18.778c-5.523 0-10 4.477-10 10 0 5.522 4.477 10 10 10h18.778c5.523 0 10-4.478 10-10s-4.477-10-10-10z"/><path d="m327.222 281h-58.111c-5.523 0-10 4.477-10 10 0 5.522 4.477 10 10 10h58.111c5.523 0 10-4.478 10-10s-4.477-10-10-10z"/></g></svg>