<svg id="Layer_1" enable-background="new 0 0 511.548 511.548" height="512" viewBox="0 0 511.548 511.548" width="512" xmlns="http://www.w3.org/2000/svg"><g><path d="m451.537 80.346c-23.892-18.024-53.325-25.094-82.257-20.08-51.896-80.365-174.899-80.345-226.779 0-62.884-12.27-126.162 40.653-124.61 105.109-.001 45.919 29.748 86.779 72.957 101.163-.536 16.042.775 27.889 11.495 40.01-7.142 7.968-11.495 18.483-11.495 30v60c0 24.813 20.187 45 45 45h105.042v39.999h-71c-8.284 0-15 6.716-15 15s6.716 15 15 15h172c19.828-.713 19.914-29.251 0-30h-71v-39.999h105.042c24.813 0 45-20.187 45-45v-60c0-11.517-4.354-22.032-11.495-30 10.738-12.15 12.026-23.973 11.495-40.024 80.815-26.455 99.03-135.3 30.605-186.178zm-330.688 196.203v-60c0-8.271 6.729-15 15-15h240.083c8.271 0 15 6.729 15 15v60c0 8.271-6.729 15-15 15h-240.083c-8.271 0-15-6.729-15-15zm270.083 120c0 8.271-6.729 15-15 15h-240.083c-8.271 0-15-6.729-15-15v-60c0-8.271 6.729-15 15-15h240.083c8.271 0 15 6.729 15 15zm30-162.373v-17.628c0-24.813-20.187-45-45-45h-240.083c-24.813 0-45 20.187-45 45v17.643c-82.49-43.736-36.083-165.292 54.732-142.487 6.72 1.92 13.875-1.057 17.251-7.175 39.055-72.761 147.071-72.761 186.118.002 3.378 6.117 10.533 9.092 17.252 7.174 90.78-22.77 137.21 98.591 54.73 142.471z"/><path d="m225.932 231.549h-60c-19.86.728-19.885 29.262 0 30h60c8.284 0 15-6.716 15-15s-6.715-15-15-15z"/><path d="m285.932 231.549c-8.261 0-15 6.738-15 15 .767 19.869 29.235 19.864 30 0 0-8.262-6.738-15-15-15z"/><path d="m345.932 231.549c-8.261 0-15 6.738-15 15 .767 19.869 29.235 19.864 30 0 0-8.262-6.738-15-15-15z"/><path d="m225.932 351.549h-60c-19.86.728-19.885 29.262 0 30h60c8.284 0 15-6.716 15-15s-6.715-15-15-15z"/><path d="m285.932 351.549c-8.261 0-15 6.738-15 15 .767 19.869 29.235 19.864 30 0 0-8.261-6.738-15-15-15z"/><path d="m345.932 351.549c-8.261 0-15 6.738-15 15 .767 19.869 29.235 19.864 30 0 0-8.261-6.738-15-15-15z"/></g></svg>