<?xml version="1.0" encoding="utf-8"?>
<!-- Generator: Adobe Illustrator 25.3.1, SVG Export Plug-In . SVG Version: 6.00 Build 0)  -->
<svg version="1.1" id="Capa_1" xmlns="http://www.w3.org/2000/svg" xmlns:xlink="http://www.w3.org/1999/xlink" x="0px" y="0px"
	 viewBox="0 0 512 512" style="enable-background:new 0 0 512 512;" xml:space="preserve">
<path d="M452,98c17.6,0,32,14.4,32,32v223c0,17.7-14.3,32-32,32H315.1c-9.6,0-18.5,4.9-23.6,13l-27,42.5c-4,6.3-13.1,6.3-17.1,0
	l-27-42.5c-5.1-8.1-14.1-13-23.6-13H60c-17.7,0-32-14.3-32-32V130c0-17.7,14.3-32,32-32H452 M452,70H60C26.9,70,0,96.9,0,130v223
	c0,33.1,26.9,60,60,60h136.9l40.9,64.4c4.3,6.7,11.3,10,18.3,10c7,0,14-3.3,18.3-10l40.9-64.4H452c33.1,0,60-26.9,60-60V130
	C512,96.9,485.1,70,452,70L452,70z"/>
<path d="M256,147.1c7.4,0,13.4,6,13.4,13.4v65.7c0,7.4-6,13.4-13.4,13.4c-7.4,0-13.4-6-13.4-13.4v-65.7
	C242.6,153.1,248.6,147.1,256,147.1 M256,119.1c-22.9,0-41.4,18.5-41.4,41.4v65.7c0,22.9,18.5,41.4,41.4,41.4s41.4-18.5,41.4-41.4
	v-65.7C297.4,137.6,278.9,119.1,256,119.1L256,119.1z"/>
<path d="M256,315c7.4,0,13.4,6,13.4,13.4s-6,13.4-13.4,13.4c-7.4,0-13.4-6-13.4-13.4S248.6,315,256,315 M256,287
	c-22.9,0-41.4,18.5-41.4,41.4s18.5,41.4,41.4,41.4s41.4-18.5,41.4-41.4S278.9,287,256,287L256,287z"/>
</svg>
