<?xml version="1.0" encoding="utf-8"?>
<!-- Generator: Adobe Illustrator 25.3.1, SVG Export Plug-In . SVG Version: 6.00 Build 0)  -->
<svg version="1.1" id="Layer_1" xmlns="http://www.w3.org/2000/svg" xmlns:xlink="http://www.w3.org/1999/xlink" x="0px" y="0px"
	 viewBox="0 0 256 256" style="enable-background:new 0 0 256 256;" xml:space="preserve">
<style type="text/css">
	.st0{fill:none;stroke:#000000;stroke-width:9;stroke-linecap:round;stroke-linejoin:round;stroke-miterlimit:10;}
</style>
<g>
	<path d="M239.5,97.5l-10.7-0.8c-1.9-6.2-4.4-12.1-7.4-17.9l7-8.1c6.1-7,5.7-17.7-0.9-24.3l-18-18c-6.6-6.6-17.2-7-24.3-0.9l-8.1,7
		c-5.7-3-11.7-5.5-17.9-7.4l-0.8-10.7C157.8,7.3,150,0,140.7,0h-25.4c-9.3,0-17.1,7.3-17.8,16.5l-0.8,10.7
		c-6.1,1.9-12.1,4.4-17.8,7.4l-8.1-7.1c-7-6.1-17.7-5.7-24.3,0.9l-18,18c-6.6,6.6-7,17.2-0.9,24.3l7,8.1c-3,5.7-5.5,11.7-7.4,17.9
		l-10.7,0.8C7.3,98.1,0,105.9,0,115.2v25.4c0,9.3,7.3,17.1,16.5,17.8l10.7,0.8c1.9,6.2,4.4,12.1,7.4,17.9l-7.1,8.1
		c-6.1,7-5.7,17.7,0.9,24.3l8.7,8.7c1.6,1.6,4.1,1.6,5.7,0c1.6-1.6,1.6-4.1,0-5.7l-8.7-8.7c-3.6-3.6-3.8-9.5-0.5-13.4l8.9-10.2
		c1.1-1.3,1.3-3.1,0.5-4.6c-3.8-6.7-6.7-13.9-8.8-21.3c-0.5-1.6-1.9-2.8-3.6-2.9l-13.5-1c-5.1-0.4-9.1-4.7-9.1-9.8v-25.4
		c0-5.1,4-9.4,9.1-9.8l13.5-1c1.7-0.1,3.1-1.3,3.6-2.9c2.1-7.4,5.1-14.6,8.8-21.3c0.8-1.5,0.6-3.3-0.5-4.6l-8.8-10.2
		c-3.4-3.9-3.1-9.8,0.5-13.4l18-18c3.6-3.6,9.5-3.8,13.4-0.5l10.2,8.9c1.3,1.1,3.1,1.3,4.6,0.5c6.7-3.8,13.8-6.7,21.2-8.8
		c1.6-0.5,2.8-1.9,2.9-3.6l1-13.5c0.4-5.1,4.7-9.1,9.8-9.1h25.4c5.1,0,9.4,4,9.8,9.1l1,13.5c0.1,1.7,1.3,3.1,2.9,3.6
		c7.4,2.1,14.6,5,21.3,8.8c1.5,0.8,3.3,0.6,4.6-0.5l10.2-8.9c3.9-3.4,9.8-3.2,13.4,0.5l18,18c3.6,3.6,3.8,9.5,0.5,13.4l-8.8,10.2
		c-1.1,1.3-1.3,3.1-0.5,4.6c3.8,6.7,6.8,13.9,8.8,21.3c0.5,1.6,1.9,2.8,3.6,2.9l13.5,1c5.1,0.4,9.1,4.7,9.1,9.8v25.4
		c0,5.1-4,9.4-9.1,9.8l-13.5,1c-1.7,0.1-3.1,1.3-3.6,2.9c-2.1,7.4-5,14.6-8.8,21.3c-0.8,1.5-0.6,3.3,0.5,4.6l8.9,10.2
		c3.4,3.9,3.2,9.8-0.5,13.4l-18,18c-3.6,3.6-9.5,3.8-13.4,0.5l-10.2-8.8c-1.3-1.1-3.1-1.3-4.6-0.5c-6.8,3.8-13.9,6.8-21.4,8.9
		c-1.6,0.5-2.8,1.9-2.9,3.6l-1,13.5c-0.4,5.1-4.7,9.1-9.8,9.1h-25.4c-5.1,0-9.4-4-9.8-9.1l-1-13.5c-0.1-1.7-1.3-3.1-2.9-3.6
		c-7.4-2.1-14.6-5.1-21.3-8.8c-1.5-0.8-3.3-0.6-4.6,0.5l-10.2,8.8c-3.9,3.4-9.8,3.1-13.4-0.5c-1.6-1.6-4.1-1.6-5.7,0
		c-1.6,1.6-1.6,4.1,0,5.7c6.6,6.6,17.2,7,24.3,0.9l8.1-7c5.7,3,11.7,5.5,17.9,7.4l0.8,10.7c0.7,9.3,8.5,16.5,17.8,16.5h25.4
		c9.3,0,17.1-7.3,17.8-16.5l0.8-10.7c6.2-1.9,12.2-4.4,17.9-7.4l8.1,7c7,6.1,17.7,5.7,24.3-0.9l18-18c6.6-6.6,7-17.2,0.9-24.3
		l-7-8.1c3-5.7,5.5-11.7,7.4-17.9l10.7-0.8c9.3-0.7,16.5-8.5,16.5-17.8v-25.4C256,105.9,248.7,98.1,239.5,97.5z"/>
	<path class="st0" d="M172.5,67.5c18.6,13.7,30.6,35.7,30.6,60.5c0,41.5-33.6,75.1-75.1,75.1S52.9,169.5,52.9,128
		S86.5,52.9,128,52.9c7.4,0,14.6,1.1,21.4,3.1"/>
</g>
<g>
	<path d="M174.3,108.7h-14.7V97.2c0-4.4-3.6-8-8-8h-47.3c-4.4,0-8,3.6-8,8v11.6H81.7c-2.6,0-4.6,2.1-4.6,4.6v51.1
		c0,2,1.3,3.8,3.2,4.4l0.2,0.4l0.3-0.2c0.3,0,0.5,0.1,0.8,0.1h92.6c0.3,0,0.6,0,0.8-0.1l0.3,0.1l0.2-0.3c1.9-0.6,3.3-2.4,3.3-4.4
		v-51.1C178.9,110.8,176.8,108.7,174.3,108.7z M159.6,113.5h9.2l-9.2,7V113.5z M151.6,94.6c1.4,0,2.5,1.1,2.5,2.5v5.3
		c-4.1-0.7-7.5-3.8-8.6-7.8H151.6z M101.8,97.2c0-1.4,1.1-2.5,2.5-2.5h5.1c-1,3.7-3.9,6.6-7.6,7.6V97.2z M101.8,107.9
		c6.7-1.2,12.1-6.5,13.2-13.2H140c1.2,7,7.1,12.6,14.1,13.4v16.7l-10.7,8.1c-2.1-6.8-8.3-11.5-15.5-11.5c-7.1,0-13.4,4.7-15.5,11.4
		l-10.7-8.1V107.9z M138.7,136.4l-10.6,8l-10.7-8.1c0.6-5.4,5.2-9.6,10.7-9.6C133.5,126.7,138.2,131,138.7,136.4z M96.4,113.5v7
		l-9.2-7H96.4z M81.9,116.4l32,24.2l-32,21.2V116.4z M88.1,164.3l30.5-20.2l9.5,7.2l9.9-7.5l30.1,20.4H88.1z M174.1,161.8
		l-30.4-20.6l0.3-2l30-22.8V161.8z"/>
	<path d="M128,117.7c3.1,0,5.9-1.7,7.4-4.4c0.7-1.2,1-2.6,1-4c0-4.6-3.8-8.4-8.4-8.4c-4.6,0-8.4,3.8-8.4,8.4c0,1.4,0.4,2.8,1,4
		C122.1,116,124.9,117.7,128,117.7z M125,109.2c0-1.6,1.3-2.9,3-2.9s2.9,1.3,3,3c0,1.6-1.3,3-3,3C126.4,112.2,125,110.9,125,109.2
		L125,109.2z"/>
</g>
</svg>
