<svg id="Capa_1" enable-background="new 0 0 510 510" height="512" viewBox="0 0 510 510" width="512" xmlns="http://www.w3.org/2000/svg"><g><path d="m120 240h-30v30h-30v90h60v30h-60v30h30v30h30v-30h30v-90h-60v-30h60v-30h-30z"/><path d="m364.831 411.474 20.338 22.052 19.831-18.288v64.762h-165v30h195v-94.762l19.831 18.288 20.338-22.052-55.169-50.879z"/><path d="m45 94.762-19.831-18.288-20.338 22.052 55.169 50.879 55.169-50.879-20.338-22.052-19.831 18.288v-64.762h135v-30h-165z"/><path d="m0 510h210v-330h-210zm30-300h150v270h-150z"/><path d="m510 120v-70.559l-135-48.375-135 48.375v70.559h30v105h-30v90h270v-90h-30v-105zm-240-49.441 105-37.625 105 37.625v19.441h-210zm30 49.441h60v105h-60zm180 165h-210v-30h210zm-30-60h-60v-105h60z"/></g></svg>