<?xml version="1.0" encoding="utf-8"?>
<!-- Generator: Adobe Illustrator 25.3.1, SVG Export Plug-In . SVG Version: 6.00 Build 0)  -->
<svg version="1.1" id="Layer_1" xmlns="http://www.w3.org/2000/svg" xmlns:xlink="http://www.w3.org/1999/xlink" x="0px" y="0px"
	 viewBox="0 0 512 512" style="enable-background:new 0 0 512 512;" xml:space="preserve">
<style type="text/css">
	.st0{fill:none;stroke:#000000;stroke-width:20;stroke-linecap:round;stroke-miterlimit:10;}
	.st1{fill:none;stroke:#000000;stroke-width:16;stroke-linecap:round;stroke-miterlimit:10;}
</style>
<g>
	<path class="st0" d="M325.1,87.7h160.5c10.6,0,19.3,9,19.3,20v255c0,51.7-40.4,93.7-90.3,93.7h-384c-10.6,0-19.3-9-19.3-20V107.7
		c0-11,8.6-20,19.3-20h162.5"/>
	<g>
		<path class="st1" d="M285.6,158.6h-82c-2.2,0-4-1.8-4-4V27.1c0-2.2,1.8-4,4-4h82c2.2,0,4,1.8,4,4v127.5
			C289.6,156.9,287.8,158.6,285.6,158.6z"/>
		<line class="st1" x1="167.5" y1="158.6" x2="321.7" y2="158.6"/>
	</g>
	<g>
		<path d="M244.4,202.4H84c-11,0-20,9-20,20v160.4c0,11,9,20,20,20h160.4c11,0,20-9,20-20V222.4
			C264.4,211.4,255.4,202.4,244.4,202.4z M244.4,222.4v127.9c-10.8-23.2-31.3-40.9-56.3-47.9c11.2-7.6,18.5-20.5,18.5-35
			c0-23.4-19-42.4-42.4-42.4s-42.4,19-42.4,42.4c0,14.5,7.3,27.4,18.5,35c-25,7-45.5,24.8-56.3,47.9V222.4H244.4z M164.2,293.8
			c-14.6,0-26.4-11.8-26.4-26.4s11.8-26.4,26.4-26.4s26.4,11.8,26.4,26.4S178.8,293.8,164.2,293.8z M236.4,382.8H92
			c2.4-37.7,33.9-67.7,72.2-67.7C202.5,315.1,234,345,236.4,382.8z"/>
		<path d="M296.3,263.8h148.9c5.5,0,10-4.5,10-10s-4.5-10-10-10H296.3c-5.5,0-10,4.5-10,10S290.8,263.8,296.3,263.8z"/>
		<path d="M445.2,289.4H296.3c-5.5,0-10,4.5-10,10s4.5,10,10,10h148.9c5.5,0,10-4.5,10-10S450.8,289.4,445.2,289.4z"/>
		<path d="M405.2,334.9H296.3c-5.5,0-10,4.5-10,10s4.5,10,10,10h108.9c5.5,0,10-4.5,10-10S410.8,334.9,405.2,334.9z"/>
	</g>
</g>
</svg>
