<svg id="Layer_1" data-name="Layer 1" xmlns="http://www.w3.org/2000/svg" viewBox="0 0 70.47 86.71"><path d="M50,26.92a8,8,0,1,1,8-8v0A8,8,0,0,1,50,26.92ZM50,15.2a3.72,3.72,0,1,0,3.71,3.73h0A3.72,3.72,0,0,0,50,15.2Z" transform="translate(-14.84 -3.63)"/><path d="M61.72,47.44a2.15,2.15,0,0,1-2.15-2.15,9.58,9.58,0,0,0-19.15,0,2.15,2.15,0,1,1-4.3,0,13.88,13.88,0,0,1,27.75,0A2.15,2.15,0,0,1,61.72,47.44Z" transform="translate(-14.84 -3.63)"/><path d="M50,50.92A23.65,23.65,0,1,1,73.64,27.28,23.64,23.64,0,0,1,50,50.92Zm0-43A19.35,19.35,0,1,0,69.34,27.28,19.34,19.34,0,0,0,50,7.93Z" transform="translate(-14.84 -3.63)"/><path d="M23,90.34a2.15,2.15,0,0,1-1.51-3.66L32.27,75.93a2.17,2.17,0,0,1,1.52-.64h29.1a3.57,3.57,0,0,0,2.58-1.07l14.3-14.34a3.65,3.65,0,0,0-5-5.35l-.2.19L59.91,69.41a2.16,2.16,0,0,1-1.52.63H40.48a2.15,2.15,0,1,1,0-4.3h17l14-14.06a8,8,0,0,1,11.6,10.89c-.12.12-.23.24-.36.35L68.47,77.26a7.86,7.86,0,0,1-5.58,2.33H34.68L24.57,89.71A2.2,2.2,0,0,1,23,90.34Z" transform="translate(-14.84 -3.63)"/><path d="M17,73.13a2.12,2.12,0,0,1-1.52-.63,2.15,2.15,0,0,1,0-3h0L25.61,59.32a7.49,7.49,0,0,1,5.32-2.14H56.52a6.45,6.45,0,1,1,0,12.89,2.15,2.15,0,0,1,0-4.3,2.15,2.15,0,0,0,0-4.3H30.93a3.19,3.19,0,0,0-2.28,1L18.52,72.55A2.1,2.1,0,0,1,17,73.13Z" transform="translate(-14.84 -3.63)"/></svg>