<svg id="Capa_1" enable-background="new 0 0 512 512" height="512" viewBox="0 0 512 512" width="512" xmlns="http://www.w3.org/2000/svg"><g><g><path d="m271.934 370.865c0-53.487-43.515-97.002-97.003-97.002-53.487 0-97.002 43.515-97.002 97.002 0 53.488 43.515 97.003 97.002 97.003 53.487-.001 97.003-43.516 97.003-97.003zm-174.006 0c0-42.459 34.543-77.002 77.002-77.002s77.003 34.543 77.003 77.002-34.543 77.003-77.003 77.003-77.002-34.544-77.002-77.003z"/><path d="m252.371 234.909 20.118 34.845c2.503 4.336 7.826 6.153 12.458 4.251l17.148-7.04c3.109 2.125 6.369 4.009 9.761 5.641l2.477 18.365c.669 4.961 4.904 8.664 9.91 8.664h40.236c5.006 0 9.241-3.702 9.91-8.664l2.477-18.364c3.392-1.632 6.652-3.517 9.761-5.641l17.149 7.04c4.63 1.9 9.955.084 12.458-4.251l20.118-34.845c2.503-4.335 1.415-9.854-2.547-12.914l-14.665-11.327c.282-3.753.282-7.526 0-11.279l14.665-11.327c3.962-3.06 5.051-8.579 2.547-12.914l-20.118-34.846c-2.502-4.335-7.825-6.151-12.458-4.251l-17.149 7.04c-3.108-2.125-6.369-4.009-9.761-5.641l-2.477-18.365c-.669-4.961-4.904-8.664-9.91-8.664h-40.236c-5.006 0-9.241 3.702-9.91 8.664l-2.477 18.365c-3.391 1.632-6.652 3.516-9.761 5.641l-17.148-7.04c-4.63-1.899-9.955-.084-12.458 4.251l-20.118 34.845c-2.503 4.335-1.415 9.854 2.547 12.914l14.665 11.327c-.282 3.753-.282 7.526 0 11.279l-14.665 11.327c-3.962 3.06-5.051 8.578-2.547 12.914zm37.667-21.316c-.886-5.666-.886-11.462 0-17.128.563-3.604-.88-7.228-3.767-9.458l-12.208-9.429 11.376-19.704 14.285 5.864c3.378 1.387 7.247.821 10.086-1.476 4.466-3.613 9.444-6.49 14.797-8.552 3.407-1.313 5.828-4.377 6.315-7.995l2.063-15.292h22.752l2.063 15.292c.488 3.618 2.909 6.683 6.315 7.995 5.353 2.063 10.332 4.939 14.796 8.552 2.84 2.298 6.707 2.863 10.087 1.477l14.285-5.864 11.376 19.705-12.208 9.429c-2.887 2.229-4.331 5.854-3.767 9.458.885 5.666.886 11.462 0 17.128-.563 3.604.881 7.228 3.768 9.458l12.208 9.429-11.376 19.704-14.285-5.864c-3.38-1.388-7.247-.821-10.087 1.477-4.463 3.611-9.442 6.489-14.796 8.551-3.407 1.313-5.828 4.377-6.315 7.995l-2.063 15.292h-22.752l-2.063-15.292c-.488-3.618-2.909-6.683-6.315-7.995-5.354-2.062-10.332-4.939-14.796-8.552-2.841-2.298-6.708-2.864-10.087-1.477l-14.285 5.864-11.376-19.704 12.208-9.429c2.885-2.231 4.329-5.856 3.766-9.459z"/><path d="m344.361 241.539c20.132 0 36.511-16.379 36.511-36.511s-16.378-36.511-36.511-36.511-36.511 16.379-36.511 36.511 16.379 36.511 36.511 36.511zm0-53.022c9.104 0 16.511 7.407 16.511 16.511s-7.407 16.511-16.511 16.511-16.511-7.407-16.511-16.511 7.406-16.511 16.511-16.511z"/><path d="m114.006 241.805c-1.538 5.304 1.516 10.851 6.82 12.388 5.236 1.517 10.872-1.587 12.389-6.821 10.497-36.216 36.79-65.357 70.817-79.809l-4.989 11.337c-2.225 5.055.07 10.956 5.125 13.181 1.311.577 2.677.85 4.022.85 3.845 0 7.51-2.23 9.158-5.975l13.977-31.76c1.994-4.526.263-9.998-3.953-12.57l-29.078-17.7c-4.719-2.872-10.87-1.375-13.742 3.342s-1.375 10.87 3.342 13.742l10.359 6.306c-40.487 16.469-71.853 50.729-84.247 93.489z"/><path d="m410.713 328.939c1.538-5.304-1.516-10.851-6.821-12.388-5.303-1.537-10.851 1.516-12.388 6.821-10.497 36.216-36.79 65.358-70.817 79.809l4.989-11.338c2.225-5.055-.07-10.956-5.125-13.181-5.057-2.226-10.956.07-13.181 5.125l-13.977 31.76c-1.994 4.531-.271 10.004 3.953 12.57l29.079 17.701c1.625.989 3.418 1.459 5.19 1.459 3.375 0 6.668-1.708 8.551-4.802 2.872-4.718 1.375-10.87-3.342-13.742l-10.36-6.306c40.489-16.467 71.855-50.727 84.249-93.488z"/><path d="m511.95 43.165c-.002-.037-.001-.075-.003-.113-1.072-21.131-18.838-38.006-40.503-38.006h-.076-431.298c-21.833.061-40.078 18.183-40.07 40.072v421.845c.031 22.042 18.267 39.974 40.652 39.974h.204c5.523 0 10-4.477 10-10s-4.477-10-10-10h-.204c-11.18 0-20.637-9.16-20.652-19.987v-374.757h472v374.689c.014 10.926-9.109 20.054-20.034 20.054-115.382.063-334.481.147-342.768.012-.307-.015-.617-.016-.932-.002-5.518.242-9.794 4.912-9.551 10.429.017.388.536 9.495 10.896 9.577.66.005 342.365-.016 342.36-.016 21.828 0 40.057-18.234 40.029-40.066v-421.756-.088c-.001-.624-.021-1.243-.05-1.861zm-19.95 29.028h-472v-27.079c0-10.92 9.16-20.067 20.07-20.067h431.297c11.184 0 20.632 9.189 20.632 20.067v27.079z"/><path d="m54.346 37.269c-4.17.312-7.779 3.27-8.896 7.301-2.49 8.983 8.114 16.19 15.584 10.693 3.647-2.684 5.012-7.679 3.275-11.849-1.614-3.942-5.717-6.463-9.963-6.145z"/><path d="m87.31 38.003c-5.03 2.087-7.502 8.013-5.41 13.05 2.088 5.029 8.013 7.5 13.05 5.41 5.056-2.099 7.482-8.007 5.41-13.06-2.092-5.02-8.017-7.488-13.05-5.4z"/><path d="m123.36 38.003c-5.036 2.09-7.492 8.009-5.41 13.05 2.081 5.039 8.017 7.489 13.05 5.41 5.053-2.087 7.477-8.017 5.41-13.06-2.092-5.021-8.018-7.488-13.05-5.4z"/><path d="m89.86 488.623c-3.84-2.559-9.098-2.113-12.443 1.072-2.906 2.766-3.875 7.128-2.418 10.864 3.202 8.213 15.174 8.356 18.548.199 1.789-4.329.254-9.555-3.687-12.135z"/><path d="m182.027 421.57v-4.642c11.632-3.12 19.086-13.126 20.746-22.998 2.162-12.86-4.818-24.48-17.369-28.917-1.112-.393-2.244-.801-3.377-1.219v-21.193c1.94.833 3.061 1.774 3.164 1.863l-.086-.078s6.456 4.504 10.671-.87c4.561-5.815-.501-10.157-.501-10.157-2.492-2.298-7.157-5.142-13.248-6.404v-3.477c0-4.142-3.358-7.5-7.5-7.5s-7.5 3.358-7.5 7.5v3.988c-.318.086-.635.172-.956.268-8.482 2.555-14.815 9.791-16.529 18.883-1.575 8.358 1.149 16.455 7.108 21.129 2.714 2.129 6.009 4.082 10.376 6.103v28.697c-2.824-.488-5.089-1.558-8.559-3.828-3.467-2.268-8.114-1.297-10.382 2.17-2.268 3.466-1.296 8.114 2.17 10.382 6.355 4.157 11.014 5.801 16.771 6.378v3.92c0 4.142 3.358 7.5 7.5 7.5s7.501-3.356 7.501-7.498zm5.953-30.126c-.576 3.424-2.589 7.02-5.953 9.256v-20.862c6.553 3.156 6.379 9.073 5.953 11.606zm-22.071-35.499c-1.513-1.187-2.151-3.757-1.625-6.549.333-1.767 1.211-3.765 2.744-5.282v12.645c-.391-.269-.769-.539-1.119-.814z"/></g></g></svg>