<svg xmlns="http://www.w3.org/2000/svg" data-name="Layer 1" viewBox="0 0 100 125" x="0px" y="0px"><path d="M50,31.33a7.46,7.46,0,1,1,7.45-7.45A7.46,7.46,0,0,1,50,31.33Zm0-10.91a3.46,3.46,0,1,0,3.45,3.46A3.46,3.46,0,0,0,50,20.42Z"/><path d="M60.91,50.42a2,2,0,0,1-2-2,8.91,8.91,0,0,0-17.82,0,2,2,0,0,1-4,0,12.91,12.91,0,1,1,25.82,0A2,2,0,0,1,60.91,50.42Z"/><path d="M50,53.66a22,22,0,1,1,22-22A22,22,0,0,1,50,53.66Zm0-40a18,18,0,1,0,18,18A18,18,0,0,0,50,13.66Z"/><path d="M24.92,90.34a2,2,0,0,1-1.41-.59,2,2,0,0,1,0-2.82l10-10a2,2,0,0,1,1.41-.59H62a3.33,3.33,0,0,0,2.4-1L77.71,62a3.4,3.4,0,1,0-4.81-4.8L59.23,70.86a2,2,0,0,1-1.42.59H41.15a2,2,0,1,1,0-4H57L70.07,54.37A7.4,7.4,0,1,1,80.53,64.83L67.19,78.17A7.34,7.34,0,0,1,62,80.34H35.75l-9.41,9.41A2,2,0,0,1,24.92,90.34Z"/><path d="M19.3,74.33a2,2,0,0,1-1.42-.59,2,2,0,0,1,0-2.83l9.43-9.43a7,7,0,0,1,4.95-2H56.07a6,6,0,1,1,0,12,2,2,0,0,1,0-4,2,2,0,1,0,0-4H32.26a3,3,0,0,0-2.12.88l-9.43,9.43A2,2,0,0,1,19.3,74.33Z"/><text x="0" y="115" fill="#000000" font-size="5px" font-weight="bold" font-family="'Helvetica Neue', Helvetica, Arial-Unicode, Arial, Sans-serif">Created by Guilherme Appolinário</text><text x="0" y="120" fill="#000000" font-size="5px" font-weight="bold" font-family="'Helvetica Neue', Helvetica, Arial-Unicode, Arial, Sans-serif">from the Noun Project</text></svg>