<svg id="Capa_1" enable-background="new 0 0 511.985 511.985" height="512" viewBox="0 0 511.985 511.985" width="512" xmlns="http://www.w3.org/2000/svg"><g><path d="m506.143 241.85-40-40c-7.811-7.811-20.475-7.811-28.285 0s-7.811 20.474 0 28.284l5.858 5.858h-47.716v-83.44c23.278-8.256 40-30.487 40-56.56 0-33.084-26.916-60-60-60s-60 26.916-60 60c0 26.073 16.722 48.303 40 56.56v83.44h-60-60v-83.44c23.278-8.256 40-30.487 40-56.56 0-33.084-26.916-60-60-60s-60 26.916-60 60c0 26.073 16.722 48.303 40 56.56v83.44h-116v-83.44c23.278-8.256 40-30.487 40-56.56 0-33.084-26.916-60-60-60s-60 26.916-60 60c0 26.073 16.722 48.303 40 56.56v103.44c0 11.046 8.954 20 20 20h56v83.44c-23.278 8.256-40 30.487-40 56.56 0 33.084 26.916 60 60 60s60-26.916 60-60c0-26.073-16.722-48.303-40-56.56v-83.44h60 60v83.44c-23.278 8.256-40 30.487-40 56.56 0 33.084 26.916 60 60 60s60-26.916 60-60c0-26.073-16.722-48.303-40-56.56v-83.44h127.715l-5.858 5.858c-7.811 7.811-7.811 20.474 0 28.284 7.81 7.81 20.474 7.811 28.285 0l40-40c7.757-7.756 7.823-20.461.001-28.284zm-130.143-165.858c11.028 0 20 8.972 20 20s-8.972 20-20 20-20-8.972-20-20 8.972-20 20-20zm-316 0c11.028 0 20 8.972 20 20s-8.972 20-20 20-20-8.972-20-20 8.972-20 20-20zm76 360c-11.028 0-20-8.972-20-20s8.972-20 20-20 20 8.972 20 20-8.972 20-20 20zm80-360c11.028 0 20 8.972 20 20s-8.972 20-20 20-20-8.972-20-20 8.972-20 20-20zm80 360c-11.028 0-20-8.972-20-20s8.972-20 20-20 20 8.972 20 20-8.972 20-20 20z"/></g></svg>