<svg id="Layer_1" data-name="Layer 1" xmlns="http://www.w3.org/2000/svg" viewBox="0 0 95.8 95.8"><path d="M44.7,55.12a7.5,7.5,0,1,1,10.6.1A7.64,7.64,0,0,1,44.7,55.12Zm-5.9-22.3a20.64,20.64,0,0,1,7.4-3V26a1.75,1.75,0,0,1,1.7-1.7h4.6A1.75,1.75,0,0,1,54.2,26v3.8a18.16,18.16,0,0,1,7.3,3.1l2.7-2.7a1.72,1.72,0,0,1,2.4,0l3.2,3.2a1.72,1.72,0,0,1,0,2.4L67,38.62A20.64,20.64,0,0,1,70,46h3.8a1.75,1.75,0,0,1,1.7,1.7v4.6A1.75,1.75,0,0,1,73.8,54H70a18.16,18.16,0,0,1-3.1,7.3L69.6,64a1.72,1.72,0,0,1,0,2.4l-3.2,3.2a1.72,1.72,0,0,1-2.4,0l-2.8-2.8a20.64,20.64,0,0,1-7.4,3v3.8a1.75,1.75,0,0,1-1.7,1.7H47.5a1.75,1.75,0,0,1-1.7-1.7v-3.8a18.16,18.16,0,0,1-7.3-3.1l-2.7,2.7a1.72,1.72,0,0,1-2.4,0l-3.2-3.2a1.72,1.72,0,0,1,0-2.4l2.7-2.7a20.64,20.64,0,0,1-3-7.4H26.1A1.75,1.75,0,0,1,24.4,52v-4.6a1.75,1.75,0,0,1,1.7-1.7h3.8a18.16,18.16,0,0,1,3.1-7.3l-2.7-2.7a1.72,1.72,0,0,1,0-2.4l3.2-3.2a1.72,1.72,0,0,1,2.4,0Zm2.9,8.6a11.74,11.74,0,0,0-.1,16.7,11.88,11.88,0,1,0,.1-16.7Zm19-13.8H57.6V15.42a8.49,8.49,0,0,1,8.5-8.5h2.6a6.5,6.5,0,1,1,0,3.2H66a5.38,5.38,0,0,0-5.4,5.4v12.1ZM71.5,8.42A3.4,3.4,0,1,0,74.9,5,3.44,3.44,0,0,0,71.5,8.42ZM48.4,21.12v-6.3a6.5,6.5,0,1,1,3.2,0v6.3Zm1.6-9.3a3.4,3.4,0,1,0-3.4-3.4A3.37,3.37,0,0,0,50,11.82Zm-7.5,3.6v12.2h-2a4.1,4.1,0,0,0-1.1.1V15.42A5.38,5.38,0,0,0,34,10H31.4a6.5,6.5,0,1,1,0-3.2H34A8.64,8.64,0,0,1,42.5,15.42Zm-14-7a3.4,3.4,0,1,0-3.4,3.4A3.37,3.37,0,0,0,28.5,8.42Zm11.6,63.7h2.4v12.2a8.49,8.49,0,0,1-8.5,8.5H31.4a6.5,6.5,0,1,1,0-3.2H34a5.38,5.38,0,0,0,5.4-5.4V72C39.6,72,39.8,72.12,40.1,72.12ZM28.5,91.22a3.4,3.4,0,1,0-3.4,3.4A3.44,3.44,0,0,0,28.5,91.22Zm28,0a6.5,6.5,0,1,1-8.1-6.3v-6.3h3.1v6.2A6.55,6.55,0,0,1,56.5,91.22Zm-3.1,0a3.4,3.4,0,1,0-3.4,3.4A3.44,3.44,0,0,0,53.4,91.22Zm28,0a6.5,6.5,0,0,1-12.8,1.6H66a8.49,8.49,0,0,1-8.5-8.5V72.12h2a4.1,4.1,0,0,0,1.1-.1v12.3a5.38,5.38,0,0,0,5.4,5.4h2.6a6.54,6.54,0,0,1,6.3-4.9A6.28,6.28,0,0,1,81.4,91.22Zm-3.1,0a3.4,3.4,0,1,0-3.4,3.4A3.44,3.44,0,0,0,78.3,91.22ZM27.7,42.32H15.6a8.49,8.49,0,0,1-8.5-8.5v-2.6a6.5,6.5,0,1,1,3.2,0v2.6a5.38,5.38,0,0,0,5.4,5.4H27.9v3.1ZM12,24.92a3.4,3.4,0,1,0-3.4,3.4A3.37,3.37,0,0,0,12,24.92Zm3,23.4h6.3v3.1H15a6.55,6.55,0,1,1,0-3.1Zm-3,1.5a3.37,3.37,0,0,0-3.4-3.4,3.29,3.29,0,0,0-3.3,3.4,3.37,3.37,0,0,0,3.4,3.4A3.29,3.29,0,0,0,12,49.82Zm-1.8,16v2.6a6.5,6.5,0,1,1-3.2,0v-2.6a8.49,8.49,0,0,1,8.5-8.5H27.7v2a4.1,4.1,0,0,0,.1,1.1H15.6A5.51,5.51,0,0,0,10.2,65.82Zm-1.6,5.5a3.4,3.4,0,1,0,3.4,3.4A3.37,3.37,0,0,0,8.6,71.32Zm89.3,3.4a6.5,6.5,0,1,1-8.1-6.3v-2.6a5.38,5.38,0,0,0-5.4-5.4H72.2v-3.1H84.4a8.49,8.49,0,0,1,8.5,8.5v2.6A6.54,6.54,0,0,1,97.9,74.72Zm-3.2,0a3.37,3.37,0,0,0-3.4-3.4,3.29,3.29,0,0,0-3.3,3.4,3.37,3.37,0,0,0,3.4,3.4A3.29,3.29,0,0,0,94.7,74.72Zm3.2-24.9a6.5,6.5,0,0,1-12.8,1.6H78.8v-3.1H85a6.54,6.54,0,0,1,6.3-4.9A6.43,6.43,0,0,1,97.9,49.82Zm-3.2,0a3.37,3.37,0,0,0-3.4-3.4,3.29,3.29,0,0,0-3.3,3.4,3.37,3.37,0,0,0,3.4,3.4A3.29,3.29,0,0,0,94.7,49.82Zm3.2-24.9a6.54,6.54,0,0,1-4.9,6.3v2.6a8.49,8.49,0,0,1-8.5,8.5H72.3v-2a4.1,4.1,0,0,0-.1-1.1H84.5a5.38,5.38,0,0,0,5.4-5.4v-2.6a6.49,6.49,0,1,1,8-6.3Zm-3.2,0a3.37,3.37,0,0,0-3.4-3.4,3.29,3.29,0,0,0-3.3,3.4,3.37,3.37,0,0,0,3.4,3.4A3.29,3.29,0,0,0,94.7,24.92Z" transform="translate(-2.1 -1.92)"/></svg>